# xmcd CD database file
#
# Track frame offsets:
#	150
#	17027
#	36187
#	58532
#	82962
#	94860
#	118230
#	141180
#	157097
#	178725
#	203507
#	236397
#	264617
#	275182
#
# Disc length: 3896 seconds
#
# Revision: 0
# Processed by: cddbd v1.5.2PL0 Copyright (c) Steve Scherf et al.
# Submitted via: CDex 1.70beta2
#
DISCID=c50f360e
DTITLE=Natsuki Tamura - How Many? (with Satoko Fujii)
DYEAR=1997
DGENRE=Jazz
TTITLE0=Akumu
TTITLE1=Lightning Attack
TTITLE2=Self Portrait
TTITLE3=Who Are We?
TTITLE4=How Many?
TTITLE5=A Day After Yesterday
TTITLE6=A Song For Jyaki
TTITLE7=Kaleidoscope
TTITLE8=Subjective Gravity
TTITLE9=Correlation
TTITLE10=One Morning In February
TTITLE11=A Bench In The Park
TTITLE12=Micro and Macro
TTITLE13=A Whisper Of Maple Wood
EXTD=YEAR: 1997
EXTT0=
EXTT1=
EXTT2=
EXTT3=
EXTT4=
EXTT5=
EXTT6=
EXTT7=
EXTT8=
EXTT9=
EXTT10=
EXTT11=
EXTT12=
EXTT13=
PLAYORDER=
